<svg xmlns="http://www.w3.org/2000/svg" viewBox="0 0 418.38 124.17"><defs><style>.cls-1{fill:#ff0080;}</style></defs><g id="Layer_2" data-name="Layer 2"><g id="Layer_7" data-name="Layer 7"><path class="cls-1" d="M13,124.17A13,13,0,0,1,3.81,102L102,3.81a13,13,0,0,1,18.38,18.38L22.19,120.36A13,13,0,0,1,13,124.17Z"/><path class="cls-1" d="M111.17,124.17a13,13,0,0,1-9.19-3.81L3.81,22.19A13,13,0,0,1,22.19,3.81L120.36,102a13,13,0,0,1-9.19,22.19Z"/><path class="cls-1" d="M160.1,124.17A13,13,0,0,1,150.91,102L249.08,3.81a13,13,0,1,1,18.39,18.38L169.3,120.36A13,13,0,0,1,160.1,124.17Z"/><path class="cls-1" d="M258.28,124.17a13,13,0,0,1-9.2-3.81L150.91,22.19A13,13,0,0,1,169.3,3.81L267.47,102a13,13,0,0,1-9.19,22.19Z"/><path class="cls-1" d="M307.21,124.17A13,13,0,0,1,298,102L396.19,3.81a13,13,0,0,1,18.38,18.38L316.4,120.36A13,13,0,0,1,307.21,124.17Z"/><path class="cls-1" d="M405.38,124.17a13,13,0,0,1-9.19-3.81L298,22.19A13,13,0,0,1,316.4,3.81L414.57,102a13,13,0,0,1-9.19,22.19Z"/></g></g></svg>