<svg xmlns="http://www.w3.org/2000/svg" viewBox="0 0 48.94 48.94"><defs><style>.cls-1{fill:#8000ff;}.cls-2{fill:#0080ff;}.cls-3{fill:#ff0080;}.cls-4{fill:none;}</style></defs><g id="Layer_2" data-name="Layer 2"><g id="Layer_1-2" data-name="Layer 1"><path class="cls-1" d="M26.88,25.84c.29.88.57,1.77.85,2.65A6.54,6.54,0,0,0,32,32.69c.91.28,1.81.58,2.72.87a1.06,1.06,0,0,1-.06,2l-2.74.75a6.23,6.23,0,0,0-4.27,4.08c-.28.88-.55,1.76-.83,2.64a1.07,1.07,0,0,1-2,0c-.28-.88-.55-1.76-.83-2.64a6.23,6.23,0,0,0-4.27-4.08l-2.74-.75a1.06,1.06,0,0,1-.06-2c.91-.29,1.81-.59,2.72-.87a6.54,6.54,0,0,0,4.27-4.2c.28-.88.56-1.77.85-2.65A1.15,1.15,0,0,1,26.88,25.84Z"/><path class="cls-2" d="M34.18,5.57,35,8.22a6.51,6.51,0,0,0,4.27,4.2l2.72.87A1.07,1.07,0,0,1,42,15.34l-2.73.74A6.19,6.19,0,0,0,35,20.16c-.28.88-.56,1.76-.83,2.64a1.07,1.07,0,0,1-2,0c-.27-.88-.55-1.76-.83-2.64A6.19,6.19,0,0,0,27,16.08l-2.73-.74a1.06,1.06,0,0,1-.06-2.05l2.72-.87a6.51,6.51,0,0,0,4.27-4.2L32,5.57A1.16,1.16,0,0,1,34.18,5.57Z"/><path class="cls-3" d="M13.34,13.83c.19.58.37,1.16.56,1.74a4.27,4.27,0,0,0,2.8,2.76l1.79.58a.7.7,0,0,1,0,1.34l-1.8.49a4.05,4.05,0,0,0-2.8,2.68c-.19.58-.37,1.16-.55,1.74a.7.7,0,0,1-1.34,0c-.18-.58-.37-1.16-.55-1.74a4.05,4.05,0,0,0-2.8-2.68l-1.8-.49a.69.69,0,0,1,0-1.34l1.79-.58a4.27,4.27,0,0,0,2.8-2.76c.19-.58.37-1.16.56-1.74A.76.76,0,0,1,13.34,13.83Z"/><rect class="cls-4" width="48.94" height="48.94"/></g></g></svg>