<svg xmlns="http://www.w3.org/2000/svg" viewBox="0 0 626.32 59.64"><defs><style>.cls-1{fill:#8000ff;}.cls-2{fill:#0080ff;}.cls-3{fill:#ff0080;}</style></defs><g id="Layer_2" data-name="Layer 2"><g id="Layer_1-2" data-name="Layer 1"><path d="M88.83,43.76a2.52,2.52,0,0,1,.89.12,2.26,2.26,0,0,1,.86.52l5.15,4.85A20.4,20.4,0,0,1,88.05,56a28.23,28.23,0,0,1-11.26,2.74,27.23,27.23,0,0,1-10.91-1.42,23.55,23.55,0,0,1-8.43-5.17,25.21,25.21,0,0,1-5.64-8.23,31.9,31.9,0,0,1-2.46-10.64,28.1,28.1,0,0,1,1.37-11,25,25,0,0,1,5.2-8.88,25.81,25.81,0,0,1,8.49-6.11A30.87,30.87,0,0,1,75.64,4.63a29.66,29.66,0,0,1,5.71.21A28.69,28.69,0,0,1,86.4,6a23.65,23.65,0,0,1,4.38,2,21,21,0,0,1,3.6,2.66l-3.89,5.77a5.51,5.51,0,0,1-.9,1,2.52,2.52,0,0,1-1.52.49,2.71,2.71,0,0,1-1.26-.22,13.86,13.86,0,0,1-1.28-.64L84,16.22a10.89,10.89,0,0,0-1.92-.8,15.19,15.19,0,0,0-2.57-.57,17.54,17.54,0,0,0-3.4-.1,15.54,15.54,0,0,0-6.09,1.53,13.4,13.4,0,0,0-4.58,3.65,15.49,15.49,0,0,0-2.8,5.49A20.55,20.55,0,0,0,62,32.48a21.56,21.56,0,0,0,1.54,7.15,16,16,0,0,0,3.34,5.13,12.88,12.88,0,0,0,4.64,3,13.43,13.43,0,0,0,5.52.81,25.91,25.91,0,0,0,3-.33,12.65,12.65,0,0,0,2.53-.71,12.12,12.12,0,0,0,2.2-1.15,16.2,16.2,0,0,0,2.08-1.7,4.86,4.86,0,0,1,.91-.65A2.58,2.58,0,0,1,88.83,43.76Z"/><path d="M110.73,1.94q1.3,27.14,2.6,54.29l-11.25.55Q100.72,29.63,99.34,2.5Z"/><path d="M148.39,54.7a5.32,5.32,0,0,1-2.43-.33,3.33,3.33,0,0,1-1.43-1.76l-.89-2A34.38,34.38,0,0,1,141,52.78a16.66,16.66,0,0,1-2.64,1.66,13.45,13.45,0,0,1-2.93,1.07,18.13,18.13,0,0,1-3.49.45,15.08,15.08,0,0,1-4.71-.47,9.66,9.66,0,0,1-3.67-1.82,8.75,8.75,0,0,1-2.42-3.15,11.66,11.66,0,0,1-1-4.46A9.26,9.26,0,0,1,121,41.9a10.12,10.12,0,0,1,3.36-4A22.52,22.52,0,0,1,131,34.71,41.06,41.06,0,0,1,141.7,33.1c0-.54,0-1.08-.07-1.61q-.13-3.33-1.57-4.76a5,5,0,0,0-3.95-1.32,10.12,10.12,0,0,0-3.27.57,15.73,15.73,0,0,0-2.25,1.08c-.65.39-1.29.74-1.91,1.06a5.39,5.39,0,0,1-2.24.54,3.49,3.49,0,0,1-2-.48,4.15,4.15,0,0,1-1.36-1.34l-2.21-3.42a23,23,0,0,1,7.43-4.82,26.86,26.86,0,0,1,8.93-1.85,16.56,16.56,0,0,1,6.26.85,13.07,13.07,0,0,1,7.93,7.48A16.58,16.58,0,0,1,152.65,31l.9,23.51Zm-13.21-6.32a9,9,0,0,0,3.78-.93,11.65,11.65,0,0,0,3.21-2.6L142,39.7a29.08,29.08,0,0,0-5.55.67A13.65,13.65,0,0,0,133,41.61a4.31,4.31,0,0,0-1.7,1.58,3.59,3.59,0,0,0-.41,1.85,3.22,3.22,0,0,0,1.17,2.68A5.16,5.16,0,0,0,135.18,48.38Z"/><path d="M183.66,24.05a2.92,2.92,0,0,1-.9,1,2.56,2.56,0,0,1-1.25.33,4,4,0,0,1-1.62-.3l-1.77-.69a18.41,18.41,0,0,0-2.12-.67,9.35,9.35,0,0,0-2.68-.26,5.72,5.72,0,0,0-3.29.93A2.62,2.62,0,0,0,169,26.7a2.23,2.23,0,0,0,.81,1.72,6.81,6.81,0,0,0,2,1.15,29.08,29.08,0,0,0,2.84.9c1.06.29,2.14.6,3.25,1a32.25,32.25,0,0,1,3.26,1.26A12,12,0,0,1,184,34.52a8.54,8.54,0,0,1,2.07,2.72,9.26,9.26,0,0,1,.86,3.89,12.86,12.86,0,0,1-.86,5.19,10.91,10.91,0,0,1-2.92,4.15,14.28,14.28,0,0,1-4.89,2.81,22.71,22.71,0,0,1-6.78,1.17,20.91,20.91,0,0,1-3.86-.24,25.54,25.54,0,0,1-3.75-.85A19.69,19.69,0,0,1,160.51,52a14.58,14.58,0,0,1-2.68-1.73L160.29,46a3.87,3.87,0,0,1,1.09-1.18,3.23,3.23,0,0,1,1.7-.48,3.55,3.55,0,0,1,1.78.38l1.72.88a13.85,13.85,0,0,0,2.16.87,9.37,9.37,0,0,0,3.09.33A8,8,0,0,0,174,46.5a4,4,0,0,0,1.43-.8,2.84,2.84,0,0,0,1-2.28,2.45,2.45,0,0,0-.82-1.83,6.78,6.78,0,0,0-2-1.18,23.58,23.58,0,0,0-2.85-.89c-1.07-.26-2.16-.57-3.26-.92a25.93,25.93,0,0,1-3.28-1.29,11.22,11.22,0,0,1-2.9-2,9.94,9.94,0,0,1-2.12-3,11.3,11.3,0,0,1-.92-4.36A11.32,11.32,0,0,1,159,23.4a10.61,10.61,0,0,1,2.66-3.89,13.91,13.91,0,0,1,4.6-2.76,20.49,20.49,0,0,1,6.57-1.18,20.93,20.93,0,0,1,4,.23,20.19,20.19,0,0,1,3.64.9,17.66,17.66,0,0,1,3.13,1.45A14.9,14.9,0,0,1,186.1,20Z"/><path d="M215.85,23.2a3,3,0,0,1-.91,1,2.57,2.57,0,0,1-1.26.32,4,4,0,0,1-1.61-.31l-1.76-.7a18.82,18.82,0,0,0-2.12-.7,9.68,9.68,0,0,0-2.68-.28,5.65,5.65,0,0,0-3.29.91,2.62,2.62,0,0,0-1.09,2.3,2.28,2.28,0,0,0,.79,1.72,7,7,0,0,0,2,1.16,27.68,27.68,0,0,0,2.83.93c1.06.29,2.14.61,3.24,1a27.46,27.46,0,0,1,3.25,1.29,11.49,11.49,0,0,1,2.85,1.86,8.56,8.56,0,0,1,2.06,2.73,9.36,9.36,0,0,1,.83,3.9,12.79,12.79,0,0,1-.91,5.18,10.81,10.81,0,0,1-2.94,4.13,14.46,14.46,0,0,1-4.92,2.77,22.51,22.51,0,0,1-6.78,1.12,20.89,20.89,0,0,1-3.86-.27,26.93,26.93,0,0,1-3.75-.87A20.83,20.83,0,0,1,192.48,51a14.89,14.89,0,0,1-2.67-1.76c.84-1.4,1.67-2.81,2.5-4.21a3.79,3.79,0,0,1,1.1-1.18,3.14,3.14,0,0,1,1.7-.46,3.49,3.49,0,0,1,1.77.39l1.72.89a13.8,13.8,0,0,0,2.16.89,9,9,0,0,0,3.08.35,8.1,8.1,0,0,0,2.22-.32,4,4,0,0,0,1.43-.78,3,3,0,0,0,.78-1.08,2.94,2.94,0,0,0,.22-1.2,2.45,2.45,0,0,0-.81-1.83,6.91,6.91,0,0,0-2-1.21,24.08,24.08,0,0,0-2.85-.9c-1.07-.28-2.15-.59-3.26-1a27.39,27.39,0,0,1-3.26-1.31,11.35,11.35,0,0,1-2.89-2,9.74,9.74,0,0,1-2.09-3,11.23,11.23,0,0,1-.89-4.37,11.27,11.27,0,0,1,.8-4.58,10.42,10.42,0,0,1,2.69-3.87,13.54,13.54,0,0,1,4.62-2.73,20.28,20.28,0,0,1,6.57-1.13,21,21,0,0,1,4,.26,20.08,20.08,0,0,1,3.63.93,17.94,17.94,0,0,1,3.12,1.47,15.35,15.35,0,0,1,2.49,1.89Z"/><path d="M225.45,52.4q-.37-18.81-.77-37.64l6.74-.13a5.82,5.82,0,0,1,1.42.12,2.49,2.49,0,0,1,1,.43,1.92,1.92,0,0,1,.6.81,7.61,7.61,0,0,1,.37,1.23l.69,3.51a18.19,18.19,0,0,1,4.6-5.13,9.58,9.58,0,0,1,5.65-1.94,6.56,6.56,0,0,1,4.2,1.17q-.67,4.14-1.34,8.3a1.65,1.65,0,0,1-.57,1.08,2,2,0,0,1-1.17.32,7.67,7.67,0,0,1-1.47-.14,11.7,11.7,0,0,0-2.12-.13c-3,0-5.29,1.66-6.94,4.84l.42,23.09C233,52.25,229.21,52.33,225.45,52.4Z"/><path d="M271.89,13.48a22.17,22.17,0,0,1,7.9,1.27,16.88,16.88,0,0,1,10.11,9.87,21.73,21.73,0,0,1,1.44,8A22.21,22.21,0,0,1,290,40.78a17.52,17.52,0,0,1-3.9,6.16,17.15,17.15,0,0,1-6,3.92,21.57,21.57,0,0,1-7.8,1.43A22.06,22.06,0,0,1,264.37,51a17.65,17.65,0,0,1-6.15-3.82,17.25,17.25,0,0,1-4.05-6.08A22.16,22.16,0,0,1,252.66,33,21.49,21.49,0,0,1,254,25a17,17,0,0,1,3.91-6.14A17.58,17.58,0,0,1,264,14.9,22.15,22.15,0,0,1,271.89,13.48Zm.29,30.46a6.46,6.46,0,0,0,5.71-2.79q1.82-2.76,1.77-8.35c0-3.73-.66-6.49-1.9-8.3A6.48,6.48,0,0,0,272,21.83c-2.68,0-4.64,1-5.86,2.78s-1.82,4.61-1.77,8.33.69,6.5,2,8.31S269.51,44,272.18,43.94Z"/><path d="M314.43,13.3a22,22,0,0,1,7.88,1.36,16.82,16.82,0,0,1,10,10,21.83,21.83,0,0,1,1.37,8.05,22.36,22.36,0,0,1-1.45,8.11,17,17,0,0,1-10,10,23.44,23.44,0,0,1-15.68,0,17.55,17.55,0,0,1-6.12-3.87,17.26,17.26,0,0,1-4-6.13A22.32,22.32,0,0,1,295,32.64a21.77,21.77,0,0,1,1.38-8,17.15,17.15,0,0,1,4-6.1,17.7,17.7,0,0,1,6.15-3.86A22.57,22.57,0,0,1,314.43,13.3Zm0,30.46A6.44,6.44,0,0,0,320.14,41Q322,38.3,322,32.7c0-3.73-.59-6.5-1.82-8.32a6.48,6.48,0,0,0-5.76-2.73q-4,0-5.89,2.72t-1.86,8.32c0,3.73.63,6.5,1.87,8.33S311.73,43.76,314.4,43.76Z"/><path d="M339.76,51.63Q339.88,32.8,340,14l7,.06a3.21,3.21,0,0,1,1.78.49,2.53,2.53,0,0,1,1,1.42l.6,2a22,22,0,0,1,2-1.78,13,13,0,0,1,2.23-1.39,12.51,12.51,0,0,1,2.58-.92,13.06,13.06,0,0,1,3-.31A9,9,0,0,1,366,15.43a10.91,10.91,0,0,1,3.36,4.75,11,11,0,0,1,2.37-2.95,12.07,12.07,0,0,1,3-2,14.4,14.4,0,0,1,3.39-1.07,17.71,17.71,0,0,1,3.54-.31A16.35,16.35,0,0,1,387.39,15a11,11,0,0,1,4.17,2.87,11.93,11.93,0,0,1,2.5,4.56,19.14,19.14,0,0,1,.75,6.06l-.48,23.92c-3.76-.08-7.51-.15-11.27-.21l.42-23.93q.11-5.83-4.94-5.93a5.22,5.22,0,0,0-3.85,1.45,5.84,5.84,0,0,0-1.58,4.31L372.75,52l-11.27-.16.3-23.92c0-2.15-.38-3.67-1.23-4.55A5,5,0,0,0,356.8,22a6.3,6.3,0,0,0-2.92.65,10.38,10.38,0,0,0-2.59,1.83L351,51.73Z"/><path d="M452.2,1c-.11,3.15-.22,6.29-.32,9.44q-11-.37-21.95-.69-.19,6.71-.38,13.4,9.1.25,18.21.56c-.1,3.15-.21,6.31-.31,9.47q-9.09-.3-18.17-.56-.3,10.29-.59,20.58l-12.35-.34L417.69,0Q435,.43,452.2,1Z"/><path d="M472.22,16.43a19.67,19.67,0,0,1,6.86,1.43,15,15,0,0,1,5.24,3.6A15.31,15.31,0,0,1,487.6,27a19.67,19.67,0,0,1,.95,7.33,14.18,14.18,0,0,1-.2,2.06,3.15,3.15,0,0,1-.45,1.25,1.54,1.54,0,0,1-.81.62,3.7,3.7,0,0,1-1.27.13Q474.93,38,464,37.56c.25,3.15,1.13,5.47,2.63,6.94a8.55,8.55,0,0,0,5.92,2.35,10.75,10.75,0,0,0,3.4-.33,18.52,18.52,0,0,0,2.57-1l2.08-1a4.21,4.21,0,0,1,2-.39,2.3,2.3,0,0,1,2,1.06l3.11,4.17a16.56,16.56,0,0,1-3.9,3.08,19.51,19.51,0,0,1-4.22,1.79,22.64,22.64,0,0,1-4.29.81,33.1,33.1,0,0,1-4.06.11,21,21,0,0,1-7.37-1.57,17,17,0,0,1-5.93-4A18.1,18.1,0,0,1,454,43.16a23.47,23.47,0,0,1-1.21-8.84,19.89,19.89,0,0,1,1.54-7.1,17.43,17.43,0,0,1,10-9.6A19.56,19.56,0,0,1,472.22,16.43Zm-.08,7.77A6.88,6.88,0,0,0,467,25.84a9.53,9.53,0,0,0-2.6,5.19q7.06.25,14.13.55a10,10,0,0,0-.25-2.63,6.07,6.07,0,0,0-1-2.31,5.67,5.67,0,0,0-2-1.7A7.06,7.06,0,0,0,472.14,24.2Z"/><path d="M506.41,18.47q-.57,11.94-1.13,23.87a6.58,6.58,0,0,0,1.07,4.37A4.62,4.62,0,0,0,510,48.42a8,8,0,0,0,3.51-.6,13,13,0,0,0,3.25-2q.66-13.4,1.34-26.8l11.35.58q-1,18.79-2,37.6l-7-.36a2.65,2.65,0,0,1-2.66-2c-.2-.74-.39-1.48-.58-2.21a22.81,22.81,0,0,1-2.35,1.79,13.8,13.8,0,0,1-2.56,1.33,15.13,15.13,0,0,1-2.89.8,15.77,15.77,0,0,1-3.36.19,13.23,13.23,0,0,1-5.41-1.33,11.19,11.19,0,0,1-3.87-3.17,12.94,12.94,0,0,1-2.27-4.65,18.5,18.5,0,0,1-.58-5.77L495.05,18C498.84,18.12,502.62,18.3,506.41,18.47Z"/><path d="M562.61,59.21a3.07,3.07,0,0,1-1.74-.58,2.53,2.53,0,0,1-.91-1.47c-.23-1-.46-1.94-.7-2.91a21.66,21.66,0,0,1-2.49,2A15.44,15.44,0,0,1,554,57.81a14.35,14.35,0,0,1-3.15.9,16.09,16.09,0,0,1-3.59.18,11.55,11.55,0,0,1-5.37-1.62,12.47,12.47,0,0,1-4.11-4,19,19,0,0,1-2.52-6.19,29.51,29.51,0,0,1-.6-8.19,25.13,25.13,0,0,1,1.59-7.75,19.25,19.25,0,0,1,3.65-6.06,15.34,15.34,0,0,1,5.37-3.83,14.82,14.82,0,0,1,6.71-1.1,12.73,12.73,0,0,1,4.91,1.14,14.16,14.16,0,0,1,3.54,2.45q.59-9.53,1.15-19L573,5.4q-1.71,27.12-3.41,54.24Zm-10.92-8.72a10.16,10.16,0,0,0,2.25-.11,7.83,7.83,0,0,0,1.87-.56,8.49,8.49,0,0,0,1.65-1A14.61,14.61,0,0,0,559,47.39l1-15.94a7.5,7.5,0,0,0-2.68-2.15,8.65,8.65,0,0,0-3.09-.74,6.75,6.75,0,0,0-2.92.45,5.79,5.79,0,0,0-2.39,1.84,10.49,10.49,0,0,0-1.72,3.45,21.86,21.86,0,0,0-.85,5.22,24.84,24.84,0,0,0,.15,5,10.52,10.52,0,0,0,1,3.35,4.81,4.81,0,0,0,1.77,1.9A5.46,5.46,0,0,0,551.69,50.49Z"/><path class="cls-1" d="M26,28.74c.36,1.11.71,2.22,1.06,3.34a8.23,8.23,0,0,0,5.39,5.29l3.43,1.1a1.34,1.34,0,0,1-.08,2.58L32.33,42A7.8,7.8,0,0,0,27,47.14L25.9,50.46a1.35,1.35,0,0,1-2.58,0c-.34-1.11-.69-2.22-1-3.32A7.79,7.79,0,0,0,16.89,42l-3.44-.94a1.34,1.34,0,0,1-.08-2.58l3.43-1.1a8.25,8.25,0,0,0,5.39-5.29c.35-1.12.7-2.23,1.06-3.34A1.45,1.45,0,0,1,26,28.74Z"/><path class="cls-2" d="M35.18,3.18c.35,1.12.71,2.23,1.06,3.34a8.2,8.2,0,0,0,5.38,5.29l3.43,1.11A1.33,1.33,0,0,1,45,15.49l-3.45.94a7.8,7.8,0,0,0-5.38,5.15l-1,3.33a1.35,1.35,0,0,1-2.58,0c-.35-1.11-.69-2.22-1.05-3.33a7.8,7.8,0,0,0-5.38-5.15l-3.45-.94a1.33,1.33,0,0,1-.07-2.57L26,11.81a8.2,8.2,0,0,0,5.38-5.29c.35-1.11.71-2.22,1.07-3.34A1.45,1.45,0,0,1,35.18,3.18Z"/><path class="cls-3" d="M8.9,13.6c.24.73.47,1.46.7,2.19a5.42,5.42,0,0,0,3.54,3.48L15.4,20a.88.88,0,0,1-.05,1.7l-2.27.61a5.15,5.15,0,0,0-3.54,3.39c-.23.73-.46,1.45-.68,2.18a.89.89,0,0,1-1.7,0l-.69-2.18A5.13,5.13,0,0,0,2.93,22.3L.67,21.69A.88.88,0,0,1,.62,20l2.25-.72a5.4,5.4,0,0,0,3.54-3.48c.23-.73.47-1.46.7-2.19A1,1,0,0,1,8.9,13.6Z"/><path class="cls-1" d="M600.34,33.74c-.35,1.11-.71,2.22-1.06,3.34a8.22,8.22,0,0,1-5.38,5.29l-3.43,1.1a1.34,1.34,0,0,0,.07,2.58L594,47a7.78,7.78,0,0,1,5.38,5.15l1,3.32a1.35,1.35,0,0,0,2.58,0c.34-1.11.69-2.22,1-3.32A7.79,7.79,0,0,1,609.43,47l3.45-.94a1.34,1.34,0,0,0,.07-2.58l-3.43-1.1a8.22,8.22,0,0,1-5.38-5.29c-.35-1.12-.71-2.23-1.07-3.34A1.45,1.45,0,0,0,600.34,33.74Z"/><path class="cls-2" d="M591.15,8.18c-.36,1.12-.72,2.23-1.07,3.34a8.2,8.2,0,0,1-5.38,5.29l-3.43,1.11a1.33,1.33,0,0,0,.07,2.57l3.45.94a7.83,7.83,0,0,1,5.39,5.15c.35,1.11.7,2.22,1,3.33a1.35,1.35,0,0,0,2.58,0l1.05-3.33a7.82,7.82,0,0,1,5.38-5.15l3.45-.94a1.33,1.33,0,0,0,.07-2.57l-3.42-1.11a8.19,8.19,0,0,1-5.39-5.29c-.35-1.11-.71-2.22-1.06-3.34A1.45,1.45,0,0,0,591.15,8.18Z"/><path class="cls-3" d="M617.42,18.6c-.24.73-.47,1.46-.7,2.19a5.4,5.4,0,0,1-3.54,3.48l-2.25.72a.88.88,0,0,0,.05,1.7l2.26.61a5.13,5.13,0,0,1,3.54,3.39l.69,2.18a.88.88,0,0,0,1.69,0l.69-2.18a5.13,5.13,0,0,1,3.54-3.39l2.26-.61a.88.88,0,0,0,.05-1.7l-2.25-.72a5.42,5.42,0,0,1-3.54-3.48c-.23-.73-.46-1.46-.7-2.19A1,1,0,0,0,617.42,18.6Z"/></g></g></svg>