<svg xmlns="http://www.w3.org/2000/svg" xmlns:xlink="http://www.w3.org/1999/xlink" viewBox="0 0 236.65 143.96"><defs><style>.cls-1,.cls-16,.cls-5{fill:none;}.cls-2{fill:#e9e9e8;}.cls-3,.cls-4{fill:#0080ff;}.cls-4,.cls-5{stroke:#0080ff;}.cls-10,.cls-12,.cls-13,.cls-15,.cls-16,.cls-4,.cls-5,.cls-9{stroke-miterlimit:10;}.cls-10,.cls-12,.cls-13,.cls-15,.cls-16,.cls-4,.cls-5,.cls-8,.cls-9{stroke-width:3px;}.cls-10,.cls-6,.cls-8{fill:#8000ff;}.cls-7{clip-path:url(#clip-path);}.cls-10,.cls-12,.cls-13,.cls-15,.cls-16,.cls-8,.cls-9{stroke:#000;}.cls-12,.cls-15,.cls-16,.cls-8{stroke-linecap:round;}.cls-8{stroke-linejoin:round;stroke-dasharray:0 11 0 0 0 0;}.cls-11{clip-path:url(#clip-path-2);}.cls-12{fill:#edf6ff;stroke-dasharray:0 11;}.cls-13,.cls-15{fill:#ff0080;}.cls-14{fill:#80ff00;}</style><clipPath id="clip-path"><path class="cls-1" d="M111.58,84.34a34,34,0,0,1-55,20c-.83-.69-1.64-1.42-2.41-2.19l-9.91-9.91L35.6,83.65l8.73-8.73a33.88,33.88,0,0,1,9.8-20.79c.77-.77,1.58-1.5,2.41-2.18a33.8,33.8,0,0,1,18.38-7.62l8.73-8.73,18.54,18.53A34,34,0,0,1,111.58,84.34Z"/></clipPath><clipPath id="clip-path-2"><path class="cls-1" d="M112,84.7a34,34,0,0,1-55,20c-.82-.68-1.63-1.41-2.4-2.19l-9.91-9.91L36,84l8.74-8.74a33.78,33.78,0,0,1,9.8-20.78c.77-.78,1.58-1.5,2.4-2.18A33.71,33.71,0,0,1,75.35,44.7L84.08,36,102.62,54.5A33.92,33.92,0,0,1,112,84.7Z"/></clipPath></defs><g id="Layer_2" data-name="Layer 2"><g id="Layer_10" data-name="Layer 10"><rect class="cls-2" width="236.65" height="143.96" rx="11.01"/><path class="cls-3" d="M81.25,11.43h-68a1.85,1.85,0,0,0-1.85,1.85V99.79a1.85,1.85,0,0,0,1.25,1.75,1.8,1.8,0,0,0,.6.1,1.85,1.85,0,0,0,1.46-.71L82.68,14.47a1.88,1.88,0,0,0,.43-1.19A1.85,1.85,0,0,0,81.25,11.43Z"/><path class="cls-4" d="M224.13,13.12a1.63,1.63,0,0,0-.68-.14,1.73,1.73,0,0,0-1.25.53L110.46,128.92a1.87,1.87,0,0,0-.38,2,1.75,1.75,0,0,0,1.63,1.12H223.45a1.79,1.79,0,0,0,1.76-1.82V14.8A1.82,1.82,0,0,0,224.13,13.12Z"/><path class="cls-3" d="M223.36,44.18v86.5H56.54V44.18H223.36m0-3H56.54a3,3,0,0,0-3,3v86.5a3,3,0,0,0,3,3H223.36a3,3,0,0,0,3-3V44.18a3,3,0,0,0-3-3Z"/><line class="cls-5" x1="56.54" y1="87.43" x2="223.36" y2="87.43"/><line class="cls-5" x1="56.54" y1="64.55" x2="223.36" y2="64.55"/><line class="cls-5" x1="56.54" y1="110.29" x2="223.36" y2="110.29"/><circle class="cls-3" cx="102.88" cy="22.55" r="3.09"/><path class="cls-6" d="M155.39,26.57a.92.92,0,0,1-.65-.27l-3.81-3.82a2.48,2.48,0,0,0-3.42,0l-1.45,1.45a4.27,4.27,0,0,1-6,0l-1.45-1.45a2.43,2.43,0,0,0-3.42,0l-1.45,1.45a4.27,4.27,0,0,1-6,0l-1.45-1.45a2.48,2.48,0,0,0-3.42,0L119,26.3A.93.93,0,0,1,117.67,25l3.81-3.82a4.29,4.29,0,0,1,6,0L129,22.62a2.46,2.46,0,0,0,3.42,0l1.45-1.45a4.29,4.29,0,0,1,6,0l1.45,1.45a2.46,2.46,0,0,0,3.42,0l1.45-1.45a4.29,4.29,0,0,1,6,0L156.05,25a.93.93,0,0,1-.66,1.58Z"/><path class="cls-6" d="M13.28,131.61a.93.93,0,0,1-.92-.93V106a.92.92,0,0,1,.57-.86.84.84,0,0,1,.35-.07.91.91,0,0,1,.66.27L38.65,130a.93.93,0,0,1,.21,1,1,1,0,0,1-.86.58Z"/><path d="M13.28,106,38,130.68H13.28V106m0-1.86a2,2,0,0,0-.71.14A1.87,1.87,0,0,0,11.43,106v24.71a1.85,1.85,0,0,0,1.85,1.85H38a1.85,1.85,0,0,0,1.31-3.16L14.59,104.65a1.85,1.85,0,0,0-1.31-.54Z"/><path class="cls-6" d="M198.65,38.93a1.15,1.15,0,0,1-.36-.07.94.94,0,0,1-.57-.86V13.28a.92.92,0,0,1,.93-.92h24.71a.93.93,0,0,1,.86.57.94.94,0,0,1-.2,1L199.3,38.65A.92.92,0,0,1,198.65,38.93Z"/><path d="M223.36,13.28h0m0,0L198.65,38V13.28h24.71m0-1.85H198.65a1.85,1.85,0,0,0-1.86,1.85V38a1.85,1.85,0,0,0,1.15,1.71,1.76,1.76,0,0,0,.71.14,1.88,1.88,0,0,0,1.31-.54l24.68-24.68a1.85,1.85,0,0,0-1.28-3.2Zm0,3.71Z"/><polygon class="cls-2" points="233.26 86.9 186.29 56.53 199.37 110.92 210.11 98.81 221.52 114.91 229.99 108.91 218.59 92.81 233.26 86.9"/><path d="M221.52,115.84l-.16,0a.91.91,0,0,1-.6-.37L210,100.3l-10,11.23a.92.92,0,0,1-1.59-.4L185.39,56.75a.92.92,0,0,1,1.4-1l47,30.36a.93.93,0,0,1,.42.86,1,1,0,0,1-.58.78L220,93.23l10.73,15.14a.92.92,0,0,1-.22,1.29l-8.48,6A.9.9,0,0,1,221.52,115.84Zm-11.41-18h0a.93.93,0,0,1,.7.39l10.88,15.35,7-4.94L217.83,93.35a.94.94,0,0,1,.41-1.4l13-5.25L187.73,58.57,199.85,109l9.57-10.78A.9.9,0,0,1,210.11,97.88Z"/><g class="cls-7"><line class="cls-8" x1="44.18" y1="105.97" x2="167.75" y2="105.97"/><line class="cls-8" x1="44.18" y1="99.79" x2="167.75" y2="99.79"/><line class="cls-8" x1="44.18" y1="93.61" x2="167.75" y2="93.61"/><line class="cls-8" x1="44.18" y1="87.43" x2="167.75" y2="87.43"/><line class="cls-8" x1="44.18" y1="81.25" x2="167.75" y2="81.25"/><line class="cls-8" x1="44.18" y1="75.07" x2="167.75" y2="75.07"/><line class="cls-8" x1="44.18" y1="68.89" x2="167.75" y2="68.89"/><line class="cls-8" x1="44.18" y1="62.71" x2="167.75" y2="62.71"/><line class="cls-8" x1="44.18" y1="56.54" x2="167.75" y2="56.54"/><line class="cls-8" x1="44.18" y1="50.36" x2="167.75" y2="50.36"/><line class="cls-8" x1="44.18" y1="44.18" x2="167.75" y2="44.18"/></g><path class="cls-9" d="M102.19,111.46a34,34,0,0,1-45.65,2.19V101.29a34,34,0,0,0,55-20A34,34,0,0,1,102.19,111.46Z"/><path class="cls-10" d="M111.58,84.34a34,34,0,0,1-55,20c-.83-.69-1.64-1.42-2.41-2.19l-9.91-9.91L35.6,83.65l8.73-8.73a33.88,33.88,0,0,1,9.8-20.79c.77-.77,1.58-1.5,2.41-2.18a33.8,33.8,0,0,1,18.38-7.62l8.73-8.73,18.54,18.53A34,34,0,0,1,111.58,84.34Z"/><g class="cls-11"><line class="cls-12" x1="42.57" y1="110.62" x2="142.57" y2="110.62"/><line class="cls-12" x1="42.57" y1="100.62" x2="142.57" y2="100.62"/><line class="cls-12" x1="42.57" y1="90.62" x2="142.57" y2="90.62"/><line class="cls-12" x1="42.57" y1="80.62" x2="142.57" y2="80.62"/><line class="cls-12" x1="42.57" y1="70.62" x2="142.57" y2="70.62"/><line class="cls-12" x1="42.57" y1="60.62" x2="142.57" y2="60.62"/><line class="cls-12" x1="42.57" y1="50.62" x2="142.57" y2="50.62"/></g><circle class="cls-13" cx="59.62" cy="59.62" r="33.98"/><path class="cls-14" d="M71,56.45A11.44,11.44,0,0,0,48.26,55a11.26,11.26,0,0,0,.59,5.33,20,20,0,0,1,.69,2.28l3.2,10.65H66.47l3.24-10.83a15.25,15.25,0,0,1,.57-1.89A11.34,11.34,0,0,0,71,56.45Z"/><path d="M67.16,74.19H52.05L48.63,62.81A17.54,17.54,0,0,0,48,60.65a12.37,12.37,0,1,1,23.18.22,13.53,13.53,0,0,0-.53,1.76l0,.06ZM53.43,72.33H65.78l3-10.14a13.21,13.21,0,0,1,.6-2A10.52,10.52,0,1,0,49.72,60a19.81,19.81,0,0,1,.71,2.35Z"/><rect class="cls-14" x="52.74" y="73.26" width="13.73" height="2.97" rx="1.48"/><path d="M65,77.16H54.23a2.42,2.42,0,1,1,0-4.83H65a2.42,2.42,0,0,1,0,4.83Zm-10.75-3a.56.56,0,1,0,0,1.11H65a.56.56,0,1,0,0-1.11Z"/><rect class="cls-14" x="52.74" y="76.32" width="13.73" height="2.97" rx="1.48"/><path d="M65,80.22H54.23a2.41,2.41,0,1,1,0-4.82H65a2.41,2.41,0,1,1,0,4.82Zm-10.75-3a.56.56,0,1,0,0,1.12H65a.56.56,0,1,0,0-1.12Z"/><path class="cls-14" d="M55.12,79.32l9.15,0v1.86c-1.93,1.92-7.21,1.92-9.14,0Z"/><path d="M59.68,83.53a7.63,7.63,0,0,1-5.22-1.71l-.27-.27V78.39h11l0,3.17-.27.27A7.64,7.64,0,0,1,59.68,83.53ZM56,80.74c1.69,1.25,5.61,1.25,7.29,0v-.5H56Z"/><polyline class="cls-14" points="59.72 73.26 59.72 56.9 55.14 56.9 64.29 56.9"/><path d="M59.72,74.19a.93.93,0,0,1-.93-.93V57.82H55.14a.93.93,0,0,1,0-1.85h9.15a.93.93,0,1,1,0,1.85H60.65V73.26A.93.93,0,0,1,59.72,74.19Z"/><line class="cls-15" x1="59.6" y1="40.23" x2="59.6" y2="34.04"/><line class="cls-15" x1="51.32" y1="42.09" x2="48.23" y2="36.73"/><line class="cls-15" x1="67.88" y1="42.09" x2="70.98" y2="36.73"/><path class="cls-16" d="M118.32,62.71s0,18.54,12.36,18.54S149.22,68.89,143,68.89s-6.18,12.36,6.18,24.72,37.07-6.18,37.07-6.18"/><circle cx="164.66" cy="115.23" r="3.09"/></g></g></svg>